<mxfile host="app.diagrams.net" modified="2021-04-07T11:34:47.049Z" agent="5.0 (Macintosh; Intel Mac OS X 10_15_7) AppleWebKit/537.36 (KHTML, like Gecko) Chrome/89.0.4389.90 Safari/537.36" etag="7p-0k1ShNc7YBMMoJmsT" version="14.5.8" type="github">
  <diagram id="TcJ7f92zjv26B019xhnV" name="Page-1">
    <mxGraphModel dx="946" dy="623" grid="1" gridSize="10" guides="1" tooltips="1" connect="1" arrows="1" fold="1" page="1" pageScale="1" pageWidth="850" pageHeight="1100" math="0" shadow="0">
      <root>
        <mxCell id="0" />
        <mxCell id="1" parent="0" />
        <mxCell id="uIXVKBmRFWCTaL3Q6mOE-3" value="" style="rounded=1;whiteSpace=wrap;html=1;dashed=1;" vertex="1" parent="1">
          <mxGeometry x="370" y="120" width="350" height="190" as="geometry" />
        </mxCell>
        <mxCell id="uIXVKBmRFWCTaL3Q6mOE-2" value="" style="verticalLabelPosition=bottom;verticalAlign=top;html=1;shape=process;whiteSpace=wrap;rounded=1;size=0.14;arcSize=6;" vertex="1" parent="1">
          <mxGeometry x="495" y="170" width="100" height="60" as="geometry" />
        </mxCell>
        <mxCell id="uIXVKBmRFWCTaL3Q6mOE-1" value="" style="ellipse;whiteSpace=wrap;html=1;aspect=fixed;" vertex="1" parent="1">
          <mxGeometry x="610" y="150" width="80" height="80" as="geometry" />
        </mxCell>
      </root>
    </mxGraphModel>
  </diagram>
</mxfile>
